<?xml version="1.0" encoding="utf-8"?>
<!-- Generator: Adobe Illustrator 16.0.0, SVG Export Plug-In . SVG Version: 6.00 Build 0)  -->
<!DOCTYPE svg PUBLIC "-//W3C//DTD SVG 1.1//EN" "http://www.w3.org/Graphics/SVG/1.1/DTD/svg11.dtd">
<svg version="1.1" id="Layer_1" xmlns="http://www.w3.org/2000/svg" xmlns:xlink="http://www.w3.org/1999/xlink" x="0px" y="0px"
	 width="50px" height="50px" viewBox="0 0 50 50" style="enable-background:new 0 0 50 50;" xml:space="preserve">
<style type="text/css">
<![CDATA[
	.st0{fill:#FFFFFF;}
]]>
</style>
<path class="st0" d="M50,25c0,13.8-11.2,25-25,25C11.2,50,0,38.8,0,25C0,11.2,11.2,0,25,0C38.8,0,50,11.2,50,25"/>
<g>
	<path d="M25,14.5c3.4,0,3.8,0,5.2,0.1c1.2,0.1,1.9,0.3,2.4,0.4c0.6,0.2,1,0.5,1.5,1c0.4,0.4,0.7,0.9,1,1.5c0.2,0.4,0.4,1.1,0.4,2.4
		c0.1,1.3,0.1,1.8,0.1,5.2c0,3.4,0,3.8-0.1,5.2c-0.1,1.2-0.3,1.9-0.4,2.4c-0.2,0.6-0.5,1-1,1.5s-0.9,0.7-1.5,1
		c-0.4,0.2-1.1,0.4-2.4,0.4c-1.3,0.1-1.7,0.1-5.2,0.1s-3.8,0-5.2-0.1c-1.2-0.1-1.9-0.3-2.4-0.4c-0.6-0.2-1-0.5-1.5-1s-0.7-0.9-1-1.5
		c-0.2-0.4-0.4-1.1-0.4-2.4c-0.1-1.3-0.1-1.7-0.1-5.2c0-3.4,0-3.8,0.1-5.2c0.1-1.2,0.3-1.9,0.4-2.4c0.2-0.6,0.5-1,1-1.5
		c0.4-0.4,0.9-0.7,1.5-1c0.4-0.2,1.1-0.4,2.4-0.4C21.2,14.6,21.6,14.5,25,14.5 M25,12.2c-3.5,0-3.9,0-5.3,0.1
		c-1.4,0.1-2.3,0.3-3.1,0.6c-0.8,0.3-1.6,0.8-2.3,1.5c-0.7,0.7-1.1,1.4-1.5,2.3c-0.3,0.8-0.5,1.7-0.6,3.1c-0.1,1.4-0.1,1.8-0.1,5.3
		c0,3.5,0,3.9,0.1,5.3c0.1,1.4,0.3,2.3,0.6,3.1c0.3,0.8,0.8,1.6,1.5,2.3c0.7,0.7,1.4,1.1,2.3,1.5c0.8,0.3,1.7,0.5,3.1,0.6
		c1.4,0.1,1.8,0.1,5.3,0.1s3.9,0,5.3-0.1c1.4-0.1,2.3-0.3,3.1-0.6c0.8-0.3,1.6-0.8,2.3-1.5c0.7-0.7,1.1-1.4,1.5-2.3
		c0.3-0.8,0.5-1.7,0.6-3.1c0.1-1.4,0.1-1.8,0.1-5.3c0-3.5,0-3.9-0.1-5.3c-0.1-1.4-0.3-2.3-0.6-3.1c-0.3-0.8-0.8-1.5-1.5-2.3
		c-0.7-0.7-1.4-1.1-2.3-1.5c-0.8-0.3-1.7-0.5-3.1-0.6C28.9,12.3,28.5,12.2,25,12.2"/>
	<path d="M25,18.4c-3.6,0-6.6,2.9-6.6,6.6s2.9,6.6,6.6,6.6s6.6-2.9,6.6-6.6S28.6,18.4,25,18.4 M25,29.3c-2.3,0-4.3-1.9-4.3-4.3
		c0-2.3,1.9-4.3,4.3-4.3s4.3,1.9,4.3,4.3C29.3,27.3,27.3,29.3,25,29.3"/>
	<path d="M33.3,18.2c0,0.8-0.7,1.5-1.5,1.5c-0.8,0-1.5-0.7-1.5-1.5s0.7-1.5,1.5-1.5C32.7,16.7,33.3,17.3,33.3,18.2"/>
</g>
</svg>
