<?xml version="1.0" encoding="utf-8"?>
<!-- Generator: Adobe Illustrator 16.0.0, SVG Export Plug-In . SVG Version: 6.00 Build 0)  -->
<!DOCTYPE svg PUBLIC "-//W3C//DTD SVG 1.1//EN" "http://www.w3.org/Graphics/SVG/1.1/DTD/svg11.dtd">
<svg version="1.1" id="Layer_1" xmlns="http://www.w3.org/2000/svg" xmlns:xlink="http://www.w3.org/1999/xlink" x="0px" y="0px"
	 width="150px" height="50px" viewBox="0 0 150 50" style="enable-background:new 0 0 150 50;" xml:space="preserve">
<style type="text/css">
<![CDATA[
	.st0{fill:#FFFFFF;}
	.st1{fill-rule:evenodd;clip-rule:evenodd;fill:#FFFFFF;}
]]>
</style>
<path class="st1" d="M3.6,34.9c-0.2-0.6-0.4-1.5-0.2-2.4c2-9.6,17.9-7.8,28.5-7.5c-0.7,0.9-2.9,4-3.4,4.9
	c-3.3,5.7-5.2,11.4-10.6,15.6c8.7-3,12-11.5,18.2-17.4c2.9-2.8,9.1-4.9,9.6,0.8c0.3,3.6-5.4,6.3-6.4,3.4c-1-3,3.8-2.6,3.4-0.2
	c3-0.9,3-5.9-0.2-6.2c-2.6-0.3-5.5,2.8-7.4,4.8c-2.4,2.5-4.3,5-5.6,6.6c2-0.4,6-3.3,6-3.3h3.9c0,0-10.3,8.5-8.9,9.8
	c1.3,1.3,4.3-0.9,5.7-1.8c1.4-1,2.5-2,4.1-3.4c1.2-1.1,2.5-2.4,3.7-3.3c2.3-1.6,5.3-2.3,6.2-1.5c0.8,0.9,1.6,4.1-8.6,7.6
	c-0.6,1-0.1,2.6,0.6,2.8c6.6,1.3,15.3-11.6,15.3-11.6s-2.7,0-3.5,0c0.2-0.4,0.6-1.1,0.6-1.1h4l3.2-4c0,0,1.9,0.1,2.5-0.1
	c1.2-0.5,1-0.9,1.8-2c2.1-2.5,12.2-1.9,16.4-1.7c-1.5,3-2.4,7.3-2.9,11.4c4.5-3.8,8.1-11.7,15.3-12.4c3.7-0.4,10.4,0.2,17.3,0.1
	c9.8-0.1,20-0.2,21.7-0.5c0.9-0.2,1.1-1,1.3-1.9c0.2-0.7,0.5-1.4,0.7-1.8c-0.1-0.4-10.1,0-12.8-3.6c1.9-1.9,3.4,0.3,4.9,0.9
	c5.6,2.5,13.3,0.1,20-0.1c-7.2,1.4-6.9,4.1-10.7,3.5c-0.4,0.4-0.6,0.9-0.8,1.5c-0.3,1-0.5,2.2-1.2,2.8c-0.9,0.8-22.9,0.8-32.3,0.7
	c-3.3,0-6.6-0.1-9.4,0.9c-4.7,1.7-8.4,6.7-11.3,10.3c-1.6,1.9-3.9,4.2-5,6c-0.7,1.2-0.4,2.4-1.9,3.1c-0.7,0.2-0.2-0.8-0.3-1.2
	c-1.6,1.3-4.7,4.7-8.1,5.2c-4,0.5-45.4,0.6-50.4,0.4c-2.2-0.1-4.9-0.3-6-0.8c-1.6-0.7-4-2.8-5-4.2C3.6,41.5,3.4,36.5,3.6,34.9
	 M95.7,24.2c6.1-0.5,12.7,0,20.1-0.1c2.1,0,5.9,0,9.9-0.1c3.7-0.1,7.7-0.2,9.1-0.6c0.5-0.2,0.7-0.6,0.8-0.9c0.3-0.8,0.2-1.1,0.5-1.8
	c0.2-0.6,0.9-1.6,1.5-1.9c-0.3-0.5-1,0.4-1,0.4s-0.5,0.7-0.8,1.6c-0.3,0.9-0.6,2-0.9,2.2c-0.9,0.6-13.7,0.7-21.7,0.8
	c-5.8,0.1-13.1-0.4-18.1,0.1c-3.5,0.4-6,2.5-8.1,4.7c-0.7,0.8-1.5,1.6-2.1,2.3c-2.3,2.5-4.8,4.8-6.2,8
	C83.8,34.7,87.8,24.8,95.7,24.2 M66.2,26.4c-2.7,4.9,8.4,6.7,9.9,2.2c0.1-1.2-2.3-1.6-2.1-2c1.3-0.4,2.7,0.8,2.8,2.2
	c1.2-1.3,3-2.9,4.4-4.5C76.4,24.3,67.8,23.6,66.2,26.4 M4.7,31.7c0.2-0.2,0.9-1.6,2.8-2.8c4.8-3.2,17.2-2.8,21.1-2.6
	c0.2-0.2,0.3-0.3,0.5-0.5C20.1,25.3,7.5,24.5,4.7,31.7 M4.8,33.5c0.4,1.4,0.8,2.6,1.8,3.6c0.6-1.7,1.8-3.7,3.8-5.1
	c2.5-1.8,6.2-2.8,9.4-1.8c1.3,0.4,3.1,1.6,3.2,3.8c0.2,5.5-11.2,8.1-16,5c-0.4,1.5,0,4.6,1,5.9c1.7,2.5,5.2,2.7,8.1,0.6
	c2.3-1.7,4.9-5.6,6.7-8.9c1.9-3.5,3.7-7.1,5.2-9.7C17.7,26.7,8,26.9,4.8,33.5 M72.5,35.8c-3.9,4.7-7.5,11.3-15.4,8.9
	c-1.3,0.5-4,1.1-5.2,0.1c-0.7-0.7-0.6-2.7-0.2-3.6c-2.3,2.6-13.3,8.3-12.3-0.3c-1,0.8-3.2,2.4-5.3,3.5c-1.8,0.9-5.4,2.2-5.7-0.5
	c-0.3-2.6,4.2-5.7,3.9-6.4c-0.4-0.6-3.2,1.2-4.5,2.2c-1.8,1.5-3.3,3.4-4.9,4.6c-2.9,2.2-9.5,3.7-12.5,3c1.9,1.8,18.6,1.4,32.2,1.3
	c8.6-0.1,16.7-0.2,20-0.3c2.1,0,4.3,0,5.9-0.7c3.8-1.5,6.9-5.1,7.9-7c0.8-1.4,0.8-4.1,1.2-6.6c0.4-2.4,1.6-5.1,1.5-6.5
	C77.3,30,75.1,32.7,72.5,35.8 M61.2,31.7l4.3,0l-0.7,1l-4.2,0c0,0-8.7,9-7.3,11.3c0.6,0.8,2.4,0.7,3.5,0.4c-2.8-3.3,4-5.6,3.5-2
	c-0.2,1.3-1.3,1.5-2.3,2c3.1,1.2,6.5-0.8,8.1-2.4c3.3-3.2,6.7-8.2,8.8-11.2c-4,2.2-9.6,0.9-10.5-2.6C63.4,29.4,61.2,31.7,61.2,31.7
	 M22.1,34c-0.1-5-8.6-4-11.8-1.2c-1.3,1.2-2.9,3.7-3,4.8C10.2,41.6,22.2,39.4,22.1,34 M42,40.1c3.7-0.3,8.7-3.3,7.4-5.1
	C47.5,33.4,42.3,39.2,42,40.1 M6.4,44c-0.5-1.4-0.5-3.6-0.3-5.4c-0.4-0.5-1.2-1.2-1.7-2.6C4.3,39.2,5,42.3,6.4,44 M57.6,44
	c0.9-0.3,2.6-1.2,2.2-2.2C58.8,39.9,55.7,42.8,57.6,44"/>
<path class="st1" d="M117.5,43.9c-1.6-3.3,6.9-9.1,6.2-9.5s-5.1,2.5-7.1,4.4c-2.1,1.9-4,4.3-6.1,6.1c-0.9,0-2,0-2.9,0
	c0.5-0.9,1.4-1.6,2.1-2.4c2.2-2.2,7.3-7,6.7-7.7c-0.9-0.9-5.3,2.6-7.3,4.5c-2.1,2-4,4.1-6.1,5.9c-0.7,0-2.8,0-2.8,0
	s9.7-9.4,9.2-10.3c-0.6-1-4.6,3.1-7.1,5.2c-2.3,1.9-5.2,4.2-7.6,5c-1.9,0.6-4.1,0.5-4.6-1.7c-0.5,0.5-1.3,1.2-2.3,1.7
	c-1.5,0.7-3.2,0.8-3.7-0.5c-1.3-4.4,2.9-7.4,6-9.2c2.2-1.2,5.7-3.2,6.6-0.3c0.5-0.4,1.5-1.3,1.5-1.3l2.9-0.1c0,0-9.6,9-8.6,10.2
	c1.6,1.9,7.9-3.5,9.3-4.7c2.6-2.4,7.2-7.2,9.2-5.6c0.5,0.4,0.4,1.6,0.4,2.4c1.9-0.8,7.5-5.8,6.8-0.2c2.3-0.8,5.6-4.4,7.6-1.9
	c1.4-10,17.1-9.5,15.5,2.5C139.9,46.6,118.3,45.4,117.5,43.9 M135.6,42.1c3.6-1.6,5.1-4.4,5.2-7.7c0.1-9.4-14.2-8.7-14,0.4
	c0,1.2,1.2,1.5,0.5,2.2c-0.8,0.5-1.2-1.2-1.5-2c-1.4,3.5-7.6,7-6.5,8.6C119.7,44.4,129.6,44.8,135.6,42.1 M94.2,34.6
	c-2.7,1.4-6.8,4.5-8,7.8c-0.2,0.9-0.4,1.5,0,2c1.1,0.9,4-2.4,5.4-3.9c1.2-1.3,3.3-3.1,4-4.5c0.2-0.3,0.1-0.6,0.1-0.9
	C95.8,34.4,94.6,34.4,94.2,34.6"/>
<path class="st0" d="M17.5,6.6c0.5-0.5,0.9-0.8,1.4-0.8c0.3,0,0.5,0.1,0.6,0.2c0.1,0.1,0.2,0.3,0.2,0.5c0,0.4-0.2,0.5-0.5,0.5
	c-0.2,0-0.3-0.1-0.5-0.3c-0.1-0.2-0.2-0.3-0.4-0.3c-0.2,0-0.4,0.1-0.7,0.4c0.3,0.4,0.4,0.9,0.4,1.4c0,0.6-0.2,1.2-0.7,1.7
	c-0.5,0.5-1.3,0.8-2.4,0.8c-1.1,0-1.7,0.3-1.7,0.7c0,0.2,0.1,0.3,0.4,0.4c0.3,0.1,0.8,0.2,1.6,0.2c0.9,0,1.6,0.1,2.1,0.2
	c0.5,0.1,0.9,0.4,1.2,0.7c0.3,0.4,0.4,0.8,0.4,1.3c0,0.7-0.3,1.3-0.9,1.7c-0.6,0.4-1.4,0.7-2.5,0.7c-1,0-1.8-0.2-2.4-0.6
	c-0.6-0.4-0.9-0.9-0.9-1.5c0-0.3,0.1-0.6,0.3-0.8c0.2-0.2,0.4-0.3,0.7-0.3c0.1,0,0.2,0,0.2,0C13.1,14,13,14.4,13,14.8
	c0,0.5,0.2,0.9,0.7,1.2c0.4,0.3,1.1,0.5,2,0.5c0.8,0,1.4-0.2,1.8-0.5c0.4-0.3,0.7-0.7,0.7-1.2c0-0.5-0.2-0.9-0.6-1.1
	c-0.4-0.2-1.1-0.3-2.1-0.4c-1.2,0-1.9-0.2-2.3-0.4c-0.3-0.2-0.5-0.5-0.5-0.9c0-0.7,0.5-1.2,1.5-1.3c-0.5-0.3-0.9-0.6-1.2-1
	c-0.3-0.4-0.4-0.8-0.4-1.3c0-0.7,0.3-1.3,0.8-1.7c0.5-0.5,1.2-0.7,1.9-0.7C16.2,5.8,16.9,6.1,17.5,6.6 M13.8,8.4
	c0,0.7,0.1,1.2,0.4,1.5c0.3,0.3,0.7,0.5,1.1,0.5c0.4,0,0.8-0.2,1.1-0.5c0.3-0.3,0.4-0.9,0.4-1.7c0-0.8-0.2-1.4-0.5-1.7
	c-0.3-0.3-0.7-0.5-1.1-0.5c-0.5,0-0.9,0.2-1.1,0.6C14,7.1,13.8,7.6,13.8,8.4"/>
<path class="st0" d="M20.2,9.4c0-1,0.3-1.9,1-2.6c0.7-0.7,1.5-1,2.5-1c1,0,1.8,0.3,2.5,1c0.7,0.7,1,1.5,1,2.6c0,1.1-0.3,2-1,2.6
	c-0.7,0.6-1.5,1-2.5,1c-1,0-1.8-0.3-2.5-1C20.5,11.3,20.2,10.5,20.2,9.4 M21.5,9.4c0,1.2,0.2,2,0.6,2.5c0.4,0.5,0.9,0.7,1.6,0.7
	c0.7,0,1.3-0.2,1.6-0.7c0.4-0.5,0.6-1.3,0.6-2.5c0-1.2-0.2-2-0.6-2.5c-0.4-0.5-0.9-0.7-1.6-0.7c-0.7,0-1.3,0.2-1.6,0.7
	C21.7,7.4,21.5,8.2,21.5,9.4"/>
<path class="st0" d="M28.5,9.4c0-1,0.3-1.9,1-2.6c0.7-0.7,1.5-1,2.5-1c1,0,1.8,0.3,2.5,1c0.7,0.7,1,1.5,1,2.6c0,1.1-0.3,2-1,2.6
	c-0.7,0.6-1.5,1-2.5,1s-1.8-0.3-2.5-1C28.9,11.3,28.5,10.5,28.5,9.4 M29.9,9.4c0,1.2,0.2,2,0.6,2.5c0.4,0.5,0.9,0.7,1.6,0.7
	c0.7,0,1.3-0.2,1.6-0.7c0.4-0.5,0.6-1.3,0.6-2.5c0-1.2-0.2-2-0.6-2.5c-0.4-0.5-0.9-0.7-1.6-0.7c-0.7,0-1.3,0.2-1.6,0.7
	C30.1,7.4,29.9,8.2,29.9,9.4"/>
<path class="st0" d="M42.5,6.7V4.1c0-0.7,0-1.2,0-1.3c0-0.2-0.1-0.3-0.2-0.4c-0.1-0.1-0.4-0.1-0.7-0.1h-0.2V1.9
	c0.7,0,1.4-0.1,2.1-0.3h0.2v8.9c0,0.8,0,1.2,0,1.4c0,0.2,0.1,0.3,0.3,0.4s0.4,0.1,0.8,0.1v0.4c-0.8,0-1.5,0.1-2.1,0.2
	c-0.1-0.3-0.1-0.7-0.1-1.2c-0.4,0.4-0.8,0.7-1.2,0.9C40.9,12.9,40.4,13,40,13c-0.9,0-1.6-0.3-2.2-1c-0.6-0.7-0.9-1.5-0.9-2.5
	c0-1.1,0.3-2,1-2.6c0.6-0.7,1.4-1,2.3-1c0.5,0,0.9,0.1,1.3,0.2C41.7,6.2,42.1,6.4,42.5,6.7 M42.5,7.2c-0.4-0.3-0.7-0.5-1.1-0.7
	s-0.7-0.2-1.1-0.2c-0.6,0-1.1,0.2-1.5,0.7c-0.4,0.5-0.6,1.2-0.6,2.3c0,1.1,0.2,1.9,0.6,2.4s0.9,0.8,1.6,0.8c0.4,0,0.8-0.1,1.1-0.3
	s0.7-0.5,1-0.9V7.2z"/>
<path class="st0" d="M53.1,8.2v2.6c0,0.4,0.1,0.7,0.2,0.8c0.1,0.2,0.4,0.2,0.8,0.2v0.9h-4.9v-0.9h0.2c0.5,0,0.8-0.1,0.9-0.2
	c0.1-0.2,0.2-0.4,0.2-0.8V8.5c0-0.4-0.1-0.7-0.2-0.8c-0.1-0.2-0.4-0.2-0.9-0.2V6.5L53,6c0.1,0.2,0.1,0.6,0.1,1.1
	c0.4-0.4,0.8-0.7,1.3-0.9c0.5-0.2,1-0.3,1.5-0.3c0.6,0,1.1,0.1,1.5,0.4c0.4,0.2,0.7,0.6,0.9,1.1c0.3-0.5,0.7-0.8,1.2-1.1
	c0.5-0.2,1-0.4,1.6-0.4c0.5,0,0.9,0.1,1.3,0.3c0.4,0.2,0.7,0.4,0.9,0.7c0.2,0.3,0.3,0.5,0.4,0.8c0.1,0.3,0.1,0.6,0.1,1.1v2.1
	c0,0.4,0.1,0.7,0.2,0.8c0.1,0.1,0.5,0.2,1,0.2v0.9h-4.8v-0.9c0.4,0,0.7-0.1,0.8-0.2c0.1-0.2,0.2-0.4,0.2-0.8V8.4
	c0-0.5-0.1-0.8-0.3-1c-0.2-0.2-0.4-0.3-0.8-0.3c-0.3,0-0.6,0.1-0.9,0.3c-0.3,0.2-0.5,0.5-0.8,0.9v2.6c0,0.4,0.1,0.7,0.2,0.8
	c0.1,0.2,0.4,0.2,0.8,0.2v0.9h-4.6v-0.9c0.4,0,0.7-0.1,0.8-0.2c0.1-0.2,0.2-0.4,0.2-0.8V8.4c0-0.4-0.1-0.8-0.2-1s-0.4-0.3-0.8-0.3
	c-0.3,0-0.6,0.1-0.9,0.3S53.4,7.8,53.1,8.2"/>
<path class="st0" d="M65.5,9.3c0-1.1,0.4-2,1.2-2.6c0.8-0.6,1.7-1,2.9-1c1.1,0,2,0.3,2.9,0.9c0.8,0.6,1.2,1.5,1.2,2.7
	c0,1.1-0.4,2-1.2,2.6c-0.8,0.7-1.8,1-2.9,1c-1.1,0-2.1-0.3-2.9-0.9C65.8,11.4,65.5,10.5,65.5,9.3 M68.2,9.3c0,1,0.1,1.8,0.3,2.2
	c0.2,0.4,0.5,0.6,1,0.6c0.4,0,0.7-0.2,0.9-0.5c0.2-0.3,0.3-1.1,0.3-2.2c0-1-0.1-1.7-0.3-2.1c-0.2-0.4-0.5-0.5-1-0.5
	c-0.4,0-0.7,0.2-0.9,0.5C68.4,7.5,68.2,8.2,68.2,9.3"/>
<path class="st0" d="M77.9,7.4c0.3-0.6,0.7-1,1.1-1.3c0.4-0.3,0.8-0.4,1.3-0.4c0.5,0,0.8,0.1,1,0.4c0.2,0.3,0.4,0.6,0.4,0.9
	c0,0.3-0.1,0.6-0.3,0.8c-0.2,0.2-0.5,0.3-0.8,0.3c-0.2,0-0.3,0-0.5-0.1C80,8.1,79.9,8,79.7,7.8c-0.2-0.2-0.4-0.3-0.6-0.3
	c-0.4,0-0.6,0.2-0.8,0.6C78.1,8.5,78,9.2,78,10v0.7c0,0.4,0.1,0.7,0.2,0.8c0.1,0.2,0.4,0.2,0.9,0.2h0.2v0.9h-4.9v-0.9
	c0.5,0,0.8-0.1,0.9-0.2c0.1-0.2,0.2-0.4,0.2-0.8V8.4c0-0.4-0.1-0.7-0.2-0.8c-0.1-0.2-0.4-0.2-0.9-0.2V6.5l3.4-0.7
	C77.8,6.2,77.9,6.8,77.9,7.4"/>
<path class="st0" d="M85.7,8.1v2.6c0,0.4,0.1,0.6,0.2,0.8c0.1,0.2,0.3,0.2,0.6,0.3v0.9H82v-0.9c0.5,0,0.8-0.1,0.9-0.2
	c0.1-0.1,0.2-0.4,0.2-0.8V8.5c0-0.4-0.1-0.7-0.2-0.8c-0.1-0.2-0.4-0.2-0.9-0.2V6.5L85.6,6c0.1,0.2,0.1,0.5,0.2,1
	c0.4-0.4,0.7-0.7,1.1-0.9c0.4-0.2,0.8-0.3,1.2-0.3c0.8,0,1.4,0.2,1.8,0.6c0.4,0.4,0.6,1,0.6,1.7v2.6c0,0.4,0.1,0.7,0.2,0.8
	c0.1,0.2,0.4,0.2,0.9,0.2v0.9h-4.5v-0.9c0.2,0,0.4-0.1,0.6-0.2c0.2-0.1,0.2-0.4,0.2-0.9V8.3c0-0.4-0.1-0.7-0.2-0.9
	c-0.1-0.2-0.3-0.2-0.5-0.2s-0.5,0.1-0.7,0.2C86.2,7.6,86,7.8,85.7,8.1"/>
<path class="st0" d="M95.9,5.8v5c0,0.4,0.1,0.7,0.2,0.8s0.4,0.2,0.9,0.2v0.9h-5v-0.9h0.2c0.5,0,0.8-0.1,0.9-0.2
	c0.1-0.2,0.2-0.4,0.2-0.8V8.3c0-0.4-0.1-0.7-0.2-0.8c-0.1-0.2-0.4-0.2-0.9-0.2H92V6.4L95.9,5.8z M93.1,2.9c0-0.4,0.1-0.7,0.4-1
	c0.3-0.3,0.6-0.4,1-0.4c0.4,0,0.8,0.1,1,0.4c0.3,0.3,0.4,0.6,0.4,1s-0.1,0.8-0.4,1c-0.3,0.3-0.6,0.4-1,0.4c-0.4,0-0.8-0.1-1-0.4
	C93.3,3.7,93.1,3.3,93.1,2.9"/>
<path class="st0" d="M101.2,8.1v2.6c0,0.4,0.1,0.6,0.2,0.8c0.1,0.2,0.3,0.2,0.6,0.3v0.9h-4.6v-0.9c0.5,0,0.8-0.1,0.9-0.2
	c0.1-0.1,0.2-0.4,0.2-0.8V8.5c0-0.4-0.1-0.7-0.2-0.8c-0.1-0.2-0.4-0.2-0.9-0.2V6.5L101,6c0.1,0.2,0.1,0.5,0.2,1
	c0.4-0.4,0.7-0.7,1.1-0.9c0.4-0.2,0.8-0.3,1.2-0.3c0.8,0,1.4,0.2,1.8,0.6c0.4,0.4,0.6,1,0.6,1.7v2.6c0,0.4,0.1,0.7,0.2,0.8
	c0.1,0.2,0.4,0.2,0.9,0.2v0.9h-4.5v-0.9c0.2,0,0.4-0.1,0.6-0.2c0.2-0.1,0.2-0.4,0.2-0.9V8.3c0-0.4-0.1-0.7-0.2-0.9
	c-0.1-0.2-0.3-0.2-0.5-0.2c-0.2,0-0.5,0.1-0.7,0.2S101.4,7.8,101.2,8.1"/>
<path class="st0" d="M109.4,10.3c-0.6-0.2-1-0.4-1.4-0.9c-0.3-0.4-0.5-0.9-0.5-1.3c0-0.8,0.3-1.3,1-1.7c0.7-0.4,1.5-0.6,2.6-0.6
	c0.6,0,1.1,0.1,1.5,0.2c0.4,0.1,0.8,0.3,1.1,0.5c0.6-0.5,1-0.7,1.4-0.7c0.5,0,0.8,0.3,0.8,0.8c0,0.4-0.2,0.7-0.6,0.7
	c-0.1,0-0.3-0.1-0.6-0.3c-0.1-0.1-0.2-0.1-0.3-0.1c-0.1,0-0.2,0.1-0.4,0.2c0.2,0.3,0.3,0.7,0.3,1.1c0,0.7-0.3,1.2-0.8,1.7
	c-0.5,0.5-1.5,0.7-2.8,0.8c-0.6,0-1,0.1-1.2,0.2c-0.2,0.1-0.3,0.2-0.3,0.5c0,0.3,0.4,0.4,1.1,0.4c0.2,0,0.5,0,1,0c0.2,0,0.4,0,0.6,0
	c1.2,0,2,0.2,2.6,0.6c0.5,0.4,0.8,1,0.8,1.8c0,0.9-0.4,1.5-1.1,2.1c-0.7,0.5-1.8,0.8-3.3,0.8c-1.4,0-2.4-0.2-2.9-0.5
	c-0.5-0.4-0.8-0.8-0.8-1.2c0-0.3,0.1-0.5,0.3-0.7c0.2-0.2,0.4-0.3,0.6-0.3c0.2,0,0.4,0.1,0.7,0.2c0,0.1-0.1,0.2-0.1,0.3
	c0,0.1,0,0.2,0,0.2c0,0.4,0.2,0.7,0.6,0.9c0.4,0.2,0.9,0.3,1.7,0.3c0.9,0,1.7-0.1,2.1-0.4c0.5-0.3,0.7-0.6,0.7-1
	c0-0.4-0.2-0.6-0.5-0.7c-0.3-0.1-1.1-0.1-2.2-0.1c-1.3,0-2.2-0.1-2.7-0.4c-0.5-0.3-0.8-0.7-0.8-1.3c0-0.4,0.1-0.8,0.4-1.1
	C108.4,10.6,108.8,10.4,109.4,10.3 M110,8.1c0,0.5,0.1,0.9,0.2,1.2c0.2,0.3,0.4,0.4,0.7,0.4c0.3,0,0.6-0.1,0.7-0.4
	c0.2-0.3,0.2-0.7,0.2-1.2c0-0.5-0.1-0.8-0.3-1c-0.2-0.2-0.4-0.3-0.7-0.3c-0.3,0-0.6,0.1-0.7,0.3C110.1,7.2,110,7.6,110,8.1"/>
</svg>
