<?xml version="1.0" encoding="utf-8"?>
<!-- Generator: Adobe Illustrator 16.0.0, SVG Export Plug-In . SVG Version: 6.00 Build 0)  -->
<!DOCTYPE svg PUBLIC "-//W3C//DTD SVG 1.1//EN" "http://www.w3.org/Graphics/SVG/1.1/DTD/svg11.dtd">
<svg version="1.1" id="Layer_1" xmlns="http://www.w3.org/2000/svg" xmlns:xlink="http://www.w3.org/1999/xlink" x="0px" y="0px"
	 width="74px" height="42px" viewBox="0 0 74 42" style="enable-background:new 0 0 74 42;" xml:space="preserve">
<style type="text/css">
<![CDATA[
	.st0{fill:#FFFFFF;}
]]>
</style>
<path class="st0" d="M15.2,39.9c-3.6-0.7-6.1-4.3-7.8-6.5C4.3,29.1,4,21.4,4.3,18.9C4.1,18,3.7,16.7,4,15.3C7,0.4,31.8,3.2,48.2,3.7
	c-1,1.3-4.5,6.2-5.3,7.6c-5.1,8.8-8,17.7-16.5,24.2c13.5-4.7,18.6-17.8,28.3-27C59.2,4.2,68.7,1,69.6,9.8c0.5,5.5-8.4,9.8-9.9,5.3
	c-1.6-4.7,5.9-4,5.3-0.3c4.6-1.4,4.7-9.1-0.3-9.6c-4.1-0.5-8.6,4.2-11.5,7.3c-1.7,1.8-2.3,2.8-4.4,5.6c-0.9,1.2-5.7,8.3-10.8,12.9
	C30.3,37.8,20.6,40.9,15.2,39.9 M6,14.9c0.2-0.3,1.4-2.4,4.2-4.4c7.4-5,26.6-4.3,32.6-4c0.3-0.3,0.4-0.4,0.8-0.8
	C30,5.1,10.3,3.8,6,14.9 M6.1,17.7c0.6,2.2,1.3,4,2.7,5.5c1-2.6,2.8-5.8,5.8-7.9c3.9-2.8,9.5-4.4,14.5-2.7c2.1,0.7,4.9,2.6,5,5.9
	c0.3,8.5-17.4,12.5-24.8,7.8c-0.6,2.4,0.1,7.1,1.5,9.1c2.7,3.8,8,4.2,12.6,0.9c3.5-2.6,7.6-8.6,10.4-13.7c3-5.5,5.7-11,8.1-14.9
	C26.1,7.1,11.2,7.4,6.1,17.7 M32.9,18.5c-0.2-7.7-13.4-6.2-18.3-1.9c-2,1.8-4.6,5.7-4.7,7.4C14.5,30.2,33.1,26.8,32.9,18.5 M8.7,34
	c-0.7-2.1-0.8-5.6-0.5-8.4c-0.6-0.8-1.8-1.9-2.6-4C5.5,26.5,6.5,31.4,8.7,34"/>
</svg>
